<svg xmlns="http://www.w3.org/2000/svg" viewBox="0 0 45.274 44"><defs><style>.a{fill:#963596}</style></defs><path class="a" d="M9.653 6.848V.003h.883v6.845zm3.767 0V.003h.707l1.523 4.239h.022V.003h.817v6.845h-.729l-1.523-4.262v4.262zm5.951 0V.003h2.142V.82h-1.259v2.053h1.17v.817h-1.17v3.158zm5.598 0V3.735L23.887.003h.905l.6 2.694h.022l.615-2.694h.927l-1.1 3.732v3.113zM38.755 21.36a16.083 16.083 0 00-8.876-14.414c-.243-.11-.287-.176-.287-.463V.356a.378.378 0 01.53-.331 22.634 22.634 0 01-6.18 43.947.373.373 0 01-.4-.353v-5.774a.383.383 0 01.353-.375 16.218 16.218 0 0014.859-16.111z"/><path class="a" d="M6.138.003a.387.387 0 01.375.375v10.094h14.02a.387.387 0 01.375.375v5.756a.387.387 0 01-.375.375H6.513v4.5c0 7.758 6.138 15.207 14.043 15.891a.385.385 0 01.331.4v5.752a.365.365 0 01-.4.375A22.7 22.7 0 010 21.293V.378A.387.387 0 01.375.003zM27.34 30.129l4.063-4.063a.361.361 0 01.53 0l13.226 13.226a.361.361 0 010 .53l-4.063 4.063a.361.361 0 01-.53 0L27.34 30.659a.361.361 0 010-.53z"/></svg>